<svg width="21" height="20" viewBox="0 0 21 20" fill="none" xmlns="http://www.w3.org/2000/svg">
<path d="M2.07861 0.897461H18.0825C18.392 0.897461 18.6346 0.997388 18.8589 1.22168C19.0831 1.44592 19.1831 1.68864 19.1831 1.99805V14.001C19.1831 14.3104 19.0832 14.5531 18.8589 14.7773C18.6346 15.0016 18.392 15.1016 18.0825 15.1016H3.70557L0.978027 17.8291V1.99805C0.978027 1.68855 1.07795 1.44597 1.30225 1.22168C1.52654 0.997388 1.76912 0.897461 2.07861 0.897461Z" fill="#262626" stroke="#262626" stroke-width="1.8005"/>
<path d="M6.28185 5.8754H7.30813V9.99854H6.28185V8.35408H4.59538V9.99854H3.5691V5.8754H4.59538V7.43583H6.28185V5.8754ZM9.5166 9.24833C9.75666 9.24833 10.0327 9.1463 10.2188 8.98426L10.819 9.59042C10.5429 9.8725 10.0087 10.0706 9.54661 10.0706C8.58634 10.0706 7.87815 9.39237 7.87815 8.43811C7.87815 7.49585 8.56233 6.82366 9.49859 6.82366C10.4829 6.82366 11.059 7.54386 11.059 8.72619H8.84441C8.94044 9.03827 9.18651 9.24833 9.5166 9.24833ZM9.5166 7.63989C9.21051 7.63989 8.96445 7.81994 8.85642 8.10802H10.1168C10.0327 7.82594 9.82268 7.63989 9.5166 7.63989ZM11.5979 9.99854V5.80338H12.6182V9.99854H11.5979ZM15.3495 6.82366C16.1837 6.82366 16.7719 7.49585 16.7719 8.44411C16.7719 9.39837 16.1837 10.0706 15.3495 10.0706C14.9354 10.0706 14.5813 9.89651 14.3352 9.60243V11.0308H13.3149V6.89568H14.3352V7.29179C14.5813 6.99771 14.9354 6.82366 15.3495 6.82366ZM15.0434 9.22432C15.4815 9.22432 15.7936 8.90023 15.7936 8.44411C15.7936 7.99398 15.4815 7.66989 15.0434 7.66989C14.6233 7.66989 14.3352 7.99398 14.3352 8.44411C14.3352 8.90023 14.6233 9.22432 15.0434 9.22432Z" fill="white"/>
</svg>
