<svg width="100" height="25" viewBox="0 0 100 25" fill="none" xmlns="http://www.w3.org/2000/svg">
<path fill-rule="evenodd" clip-rule="evenodd" d="M0.000300062 12.3865C0.000300062 10.2338 0.000300062 8.07543 0.000300062 5.91704C0.000640086 5.40155 0.0433913 4.88708 0.12807 4.37943C0.424385 2.71536 1.48732 1.68071 3.10482 1.60311C4.47758 1.52553 5.85329 1.52553 7.22606 1.60311C8.92511 1.69508 10.0288 2.81595 10.2164 4.59498C10.317 5.5664 10.2844 6.55794 10.3007 7.54086C10.3007 7.94323 10.1675 8.19614 9.72435 8.21913C9.10429 8.25272 8.48634 8.32083 7.87306 8.42319C7.38917 8.50079 7.22334 8.27086 7.22334 7.80815C7.22334 7.08101 7.23693 6.35389 7.22334 5.62963C7.19343 4.78754 6.91615 4.48002 6.13594 4.45415C5.53787 4.42828 4.93437 4.42828 4.33902 4.45415C3.52347 4.49151 3.22715 4.8249 3.21084 5.68423C3.18909 6.78786 3.21084 7.88862 3.21084 8.98937V18.557C3.21084 20.063 3.42832 20.2815 4.87999 20.2815C5.34486 20.2815 5.80972 20.2815 6.27458 20.2613C6.40321 20.2701 6.53212 20.2494 6.65248 20.2007C6.77284 20.1519 6.8818 20.0762 6.97191 19.9787C7.06202 19.8813 7.13114 19.7644 7.17453 19.6361C7.21793 19.5078 7.23458 19.3711 7.22334 19.2353C7.22334 18.5053 7.24237 17.781 7.22334 17.0539C7.22334 16.5481 7.38101 16.2751 7.9084 16.2578C8.52549 16.2348 9.14531 16.0997 9.76241 16.0911C9.94183 16.0911 10.2789 16.0193 10.2789 16.5021C10.3174 17.8816 10.2574 19.2622 10.0995 20.6321C9.89018 22.0691 8.80822 23.0348 7.41091 23.1095C5.90696 23.1986 4.39946 23.1986 2.8955 23.1095C1.15838 22.9945 0.0573904 21.5058 0.0193315 19.2813C-0.0241644 16.9821 0.0193315 14.6828 0.0193315 12.3836L0.000300062 12.3865Z" fill="#FF6D1D"/>
<path fill-rule="evenodd" clip-rule="evenodd" d="M22.6614 5.93671C22.6637 5.43884 22.6296 4.94156 22.5596 4.44949C22.3131 2.78832 21.2443 1.67507 19.6825 1.5939C18.2252 1.52432 16.7572 1.53302 15.2999 1.5939C14.1855 1.65478 13.2399 2.223 12.8353 3.38843C12.5485 4.22388 12.3963 5.10641 12.3853 5.99759C12.3451 11.3841 12.3665 16.7706 12.3665 22.1599V22.5861C12.3665 22.9891 12.5434 23.1804 12.9371 23.1659C13.5667 23.1456 14.2042 23.1369 14.8338 23.1659C15.3079 23.1891 15.4365 22.9514 15.4338 22.4875V17.7388L19.5191 16.2893V19.2203C19.5191 20.2871 19.5191 21.3337 19.503 22.3716C19.4896 23.0065 19.6932 23.221 20.2611 23.1688C20.7594 23.1311 21.263 23.1688 21.764 23.1688C22.6507 23.1688 22.6614 23.1543 22.6614 22.1628C22.6614 16.7512 22.6614 11.3396 22.6614 5.92801V5.93671ZM15.4285 14.6252V5.92801C15.4285 4.73939 15.6964 4.46398 16.7679 4.45818C17.376 4.45818 17.9868 4.45818 18.5976 4.48427C18.7195 4.47848 18.8412 4.50084 18.9545 4.54987C19.0678 4.5989 19.1702 4.67347 19.2548 4.76863C19.3395 4.86378 19.4044 4.97735 19.4454 5.10177C19.4863 5.22619 19.5023 5.35862 19.4923 5.49025C19.5057 7.92548 19.4923 10.3665 19.4923 12.8481V13.1873L15.4285 14.6252Z" fill="#FF6D1D"/>
<path fill-rule="evenodd" clip-rule="evenodd" d="M34.841 20.6207C34.7474 21.3144 34.4293 21.9483 33.9446 22.4071C33.4599 22.8658 32.8408 23.1189 32.2 23.1204C30.6841 23.195 29.1629 23.195 27.647 23.1204C26.9425 23.1093 26.2667 22.8132 25.7499 22.289C25.2332 21.7649 24.9121 21.0499 24.8487 20.282C24.7333 19.2431 24.7621 18.1842 24.7228 17.1252C24.7044 16.6861 24.9169 16.4852 25.2971 16.4479C25.9135 16.3847 26.5298 16.3302 27.1461 16.2556C27.5736 16.2011 27.7179 16.4249 27.7179 16.864C27.7179 17.636 27.7179 18.4051 27.7179 19.18C27.7179 19.8659 28.0457 20.2333 28.6568 20.2533C29.4226 20.282 30.1963 20.2964 30.9647 20.2533C31.6466 20.216 31.9561 19.8946 31.9666 19.157C31.9981 17.68 31.9981 16.2058 31.9666 14.7346C31.9666 13.974 31.6151 13.6325 30.9175 13.6124C30.0389 13.5809 29.163 13.5895 28.2948 13.6124C26.3803 13.6555 25.0506 12.4071 24.9588 10.3006C24.8696 8.45653 24.8696 6.60861 24.9588 4.76457C25.0611 2.82739 26.1757 1.68518 27.9408 1.59047C29.2437 1.52446 30.5488 1.5302 31.8512 1.60769C32.5556 1.61268 33.233 1.90527 33.7506 2.42816C34.2682 2.95104 34.5888 3.66654 34.6496 4.43453C34.7506 5.38692 34.7795 6.34681 34.7361 7.30442C34.7151 7.75212 34.4109 7.84396 34.1958 7.89561C33.611 8.02476 33.0052 8.01041 32.4124 8.0965C31.9561 8.16538 31.7804 7.97023 31.7856 7.49096C31.7856 6.83662 31.7856 6.17942 31.7856 5.52508C31.7856 4.87075 31.4866 4.50053 30.907 4.47184C30.2239 4.43166 29.5393 4.43166 28.8561 4.47184C28.245 4.50627 27.946 4.91667 27.9434 5.58822C27.9434 6.89976 27.9434 8.20843 27.9434 9.51423C27.9434 10.3408 28.2791 10.7024 29.0423 10.7253C30.1727 10.7598 31.3188 10.6622 32.4308 10.8401C34.0254 11.0898 34.8594 12.1832 34.9643 13.9453C35.0246 14.9498 35.0089 15.9543 35.0089 16.9673C35.0506 18.1776 34.9953 19.3895 34.8436 20.5891" fill="#FF6D1D"/>
<path fill-rule="evenodd" clip-rule="evenodd" d="M47.5267 1.54492H45.8252C45.1469 1.54492 44.9556 1.76969 44.973 2.42065C44.973 3.72257 44.973 8.48947 44.973 13.0783L40.4945 14.5524C40.4945 9.61916 40.4945 4.04368 40.4945 2.63959C40.4945 1.57703 40.4945 1.57703 39.4684 1.57703C39.0191 1.57703 38.5727 1.57703 38.1205 1.57703C37.0885 1.57703 37.0856 1.57703 37.0856 2.59872V20.9482C37.0856 21.4269 37.1059 21.8998 37.0856 22.3786C37.0538 22.9624 37.2625 23.2105 37.8654 23.1726H39.7756C40.3554 23.1726 40.509 22.9799 40.5061 22.4224C40.5061 21.6605 40.5061 19.8827 40.5061 17.6846L44.999 16.1959C44.999 19.0537 44.999 21.4678 44.999 22.3727C44.999 22.9361 45.1498 23.1638 45.7701 23.1638C46.5614 23.1638 47.1151 23.1638 47.4716 23.1638C48.3934 23.1638 48.4108 23.1405 48.4108 22.1859C48.4108 16.7622 48.4108 11.3356 48.4108 5.90606C48.4108 4.76469 48.3847 3.62332 48.4108 2.48195C48.4369 1.8164 48.263 1.5566 47.5412 1.5566" fill="#FF6D1D"/>
<path fill-rule="evenodd" clip-rule="evenodd" d="M53.592 13.7379V14.7399C53.592 17.3135 53.592 19.89 53.592 22.4606C53.592 22.9719 53.4598 23.2055 52.968 23.1734C52.344 23.1442 51.7174 23.153 51.0934 23.1734C50.6466 23.1909 50.4536 22.9748 50.4747 22.4957C50.4747 22.3759 50.4747 22.2562 50.4747 22.1393V2.60815C50.4747 1.54775 50.4747 1.54775 51.453 1.54775H52.4868C53.6978 1.54775 53.5815 1.42506 53.5841 2.79511C53.5841 5.13207 53.5841 7.46903 53.5841 9.80599V10.6181C54.1896 10.8021 54.573 10.77 54.8691 10.0338C55.9267 7.38432 57.0901 4.77568 58.1927 2.1466C58.252 1.95638 58.3687 1.79449 58.5232 1.6881C58.6778 1.58172 58.8607 1.53732 59.0414 1.56236C59.6866 1.58865 60.3344 1.56236 60.9848 1.56236C61.5771 1.56236 61.6432 1.69966 61.3576 2.35985C60.6331 4.0337 59.8902 5.69878 59.1551 7.36679C58.5417 8.75436 57.9494 10.1565 57.3043 11.5266C57.2138 11.7064 57.169 11.91 57.1746 12.1156C57.1802 12.3213 57.2359 12.5215 57.336 12.6951C58.7726 15.8909 60.1916 19.0954 61.5929 22.3087C61.9446 23.1004 61.8996 23.1559 61.1276 23.1559C60.5009 23.1559 59.8769 23.1354 59.2529 23.1559C59.0495 23.1833 58.8437 23.1331 58.6696 23.0135C58.4955 22.894 58.3636 22.7123 58.2958 22.4986C57.1403 19.7585 55.9558 17.0389 54.8321 14.2842C54.5677 13.6269 54.2372 13.4925 53.5815 13.7204" fill="#0036DA"/>
<path fill-rule="evenodd" clip-rule="evenodd" d="M74.1647 5.93671C74.1683 5.43879 74.1342 4.94139 74.0629 4.44949C73.8164 2.78832 72.7447 1.67507 71.1881 1.5939C69.728 1.52432 68.2625 1.53302 66.805 1.5939C65.6851 1.65478 64.742 2.223 64.3375 3.38843C64.0515 4.22404 63.9001 5.10658 63.8901 5.99759C63.8499 11.3841 63.8686 16.7706 63.8686 22.1599C63.8686 22.2991 63.8686 22.4498 63.8686 22.5861C63.8686 22.9891 64.0455 23.1804 64.4366 23.1659C65.0689 23.1456 65.7039 23.1369 66.3388 23.1659C66.8104 23.1891 66.9363 22.9514 66.9336 22.4875V17.7388L71.0193 16.2893V19.2203C71.0193 20.2871 71.0193 21.3337 71.0033 22.3716C71.0033 23.0065 71.1935 23.221 71.7588 23.1688C72.2598 23.1311 72.7635 23.1688 73.2671 23.1688C74.1486 23.1688 74.162 23.1543 74.162 22.1628C74.162 16.7512 74.162 11.3396 74.162 5.92801L74.1647 5.93671ZM66.9282 14.6252V5.92801C66.9282 4.73939 67.1828 4.46398 68.2678 4.45818C68.876 4.45818 69.4895 4.45818 70.0977 4.48427C70.2197 4.47853 70.3415 4.5009 70.455 4.5499C70.5684 4.5989 70.671 4.67342 70.7558 4.76852C70.8407 4.86363 70.9059 4.97715 70.9472 5.10157C70.9884 5.22599 71.0048 5.35847 70.9952 5.49025C70.9952 7.92548 70.9952 10.3665 70.9952 12.8481V13.1873L66.9282 14.6252Z" fill="#0036DA"/>
<path fill-rule="evenodd" clip-rule="evenodd" d="M79.576 17.5295C79.576 19.1692 79.539 20.7182 79.5931 22.2556C79.6188 22.998 79.3623 23.2347 78.6728 23.1646C78.1912 23.1149 77.7011 23.1646 77.211 23.1646C76.2251 23.1646 76.2251 23.1646 76.2251 22.1153V2.53282C76.2251 1.54492 76.2251 1.54492 77.2025 1.54492H83.2689C85.6425 1.54492 87.0302 2.86893 87.0843 5.30067C87.1356 7.98669 87.1299 10.6844 87.0843 13.3763C87.053 14.9692 86.4689 16.299 84.782 16.9186C85.104 17.6055 85.3832 18.2222 85.6796 18.836C86.2495 20.0051 86.8193 21.1742 87.3693 22.3433C87.6998 23.0447 87.6286 23.1441 86.8507 23.15C84.2577 23.185 84.2577 23.185 83.1464 20.7621C82.7361 19.8589 82.3058 18.9646 81.924 18.0527C81.872 17.8704 81.7556 17.7145 81.5975 17.6156C81.4394 17.5166 81.251 17.4818 81.0692 17.5178C80.6075 17.5529 80.1431 17.5178 79.5703 17.5178L79.576 17.5295ZM79.6216 4.49983V14.56C80.6617 14.56 81.6533 14.56 82.6477 14.56C83.3459 14.56 83.7248 14.1771 83.7305 13.4493C83.7505 10.8188 83.7476 8.21466 83.7305 5.59879C83.7305 5.05516 83.5083 4.55537 82.927 4.52322C81.8243 4.46476 80.7158 4.50568 79.6159 4.50568" fill="#0036DA"/>
<path fill-rule="evenodd" clip-rule="evenodd" d="M99.9037 12.3591C99.9037 14.5618 99.9193 16.7616 99.9037 18.9643C99.8982 19.5701 99.8212 20.1725 99.6746 20.7563C99.5367 21.4259 99.1969 22.024 98.7109 22.4529C98.2248 22.8817 97.6212 23.1158 96.9989 23.117C95.7469 23.1887 94.4976 23.1801 93.2482 23.1686C90.8927 23.1428 89.7422 21.9194 89.6407 19.306C89.5939 18.1114 89.6277 16.9167 89.6251 15.722C89.6251 12.4481 89.6017 9.17135 89.6407 5.89747C89.6522 5.1052 89.7778 4.31998 90.0129 3.57129C90.406 2.31918 91.33 1.69024 92.4934 1.61558C93.7948 1.53516 95.1223 1.53517 96.4367 1.55814C98.6829 1.59835 99.8724 2.91364 99.9037 5.41788C99.9323 7.73544 99.9037 10.0501 99.9037 12.3648V12.3591ZM96.8427 12.3591C96.8427 10.1334 96.8427 7.91062 96.8427 5.68496C96.8427 4.82341 96.5408 4.4874 95.7756 4.45007C95.255 4.42135 94.7136 4.43571 94.1853 4.45007C92.9203 4.45007 92.6834 4.70566 92.6834 6.07553C92.6834 8.62571 92.6834 11.1778 92.6834 13.7318C92.6834 15.4176 92.6834 17.1033 92.6834 18.7891C92.6834 19.9752 92.9645 20.271 94.0525 20.2825C94.5418 20.2825 95.0312 20.2825 95.5179 20.2825C96.559 20.2681 96.8427 19.9723 96.848 18.8293C96.848 16.6774 96.848 14.5244 96.848 12.3706" fill="#0036DA"/>
</svg>
